<svg width="32" height="32" viewBox="0 0 32 32" fill="none" xmlns="http://www.w3.org/2000/svg">
<rect width="32" height="32" fill="#CC0000"/>
<path d="M10.4916 18.3336C10.4916 19.5992 9.82323 20.8751 7.72774 20.8751C5.98323 20.8751 5 19.9098 5 18.1642V17.5891H6.24387V17.9793C6.24387 19.0601 6.5329 19.8302 7.75097 19.8302C8.89161 19.8302 9.24516 19.1782 9.24516 18.1488V11.3433H10.4916V18.331V18.3336Z" fill="white"/>
<path d="M18.1587 14.1491C17.8954 12.8321 16.8348 12.1673 15.5367 12.1673C13.3096 12.1673 12.3651 13.9925 12.3651 15.9358C12.3651 18.0614 13.3096 19.8327 15.5496 19.8327C17.1883 19.8327 18.1328 18.6852 18.249 17.1475H19.4928C19.258 19.4682 17.8025 20.875 15.4438 20.875C12.5354 20.875 11.1187 18.7366 11.1187 16.0257C11.1187 13.3148 12.6645 11.125 15.547 11.125C17.5006 11.125 19.1109 12.1673 19.3999 14.1491H18.1561H18.1587Z" fill="white"/>
<path d="M20.0269 11.3457H24.1301C25.9907 11.3457 26.9998 12.3751 26.9998 14.0977C26.9998 15.8202 25.9907 16.8625 24.1301 16.8497H21.2733V20.6567H20.0269V11.3483V11.3457ZM21.2733 15.8048H23.7094C25.1133 15.8177 25.7533 15.2041 25.7533 14.0977C25.7533 12.9912 25.1107 12.3905 23.7094 12.3905H21.2733V15.8074V15.8048Z" fill="white"/>
</svg>
